<?xml version="1.0" encoding="utf-8"?>
<!-- Svg Vector Icons : http://www.onlinewebfonts.com/icon -->
<!DOCTYPE svg PUBLIC "-//W3C//DTD SVG 1.1//EN" "http://www.w3.org/Graphics/SVG/1.1/DTD/svg11.dtd">
<svg version="1.1" xmlns="http://www.w3.org/2000/svg" xmlns:xlink="http://www.w3.org/1999/xlink" x="0px" y="0px" viewBox="0 0 1000 1000" enable-background="new 0 0 1000 1000" xml:space="preserve">
<metadata> Svg Vector Icons : http://www.onlinewebfonts.com/icon </metadata>
<g><g><path d="M846.5,153.5C753.9,61,630.9,10,500,10c-130.9,0-253.9,51-346.5,143.5C61,246.1,10,369.1,10,500c0,130.9,51,254,143.5,346.5C246.1,939,369.1,990,500,990c130.9,0,253.9-51,346.5-143.5C939,754,990,630.9,990,500C990,369.1,939,246.1,846.5,153.5z M824.8,824.8C738.1,911.6,622.7,959.4,500,959.4c-122.7,0-238.1-47.8-324.8-134.5C88.4,738.1,40.6,622.7,40.6,500c0-122.7,47.8-238.1,134.6-324.8C261.9,88.4,377.3,40.6,500,40.6c122.7,0,238.1,47.8,324.8,134.6c86.8,86.8,134.5,202.1,134.5,324.8C959.4,622.7,911.6,738.1,824.8,824.8z"/><path d="M833.1,230.1c-5.3-6.6-15-7.6-21.5-2.2c-6.6,5.3-7.6,15-2.2,21.5c57.3,70.6,88.8,159.6,88.8,250.6c0,106.4-41.4,206.3-116.6,281.5C706.3,856.7,606.4,898.1,500,898.1c-98.1,0-192.4-36-265.4-101.4c-6.3-5.6-16-5.1-21.6,1.2c-5.6,6.3-5.1,16,1.2,21.6C292.8,890,394.3,928.8,500,928.8c114.5,0,222.2-44.6,303.2-125.6c81-81,125.6-188.6,125.6-303.2C928.8,401.9,894.8,306.1,833.1,230.1z"/><path d="M101.9,500c0-219.5,178.6-398.1,398.1-398.1c98.1,0,192.4,36,265.4,101.4c6.3,5.6,16,5.1,21.6-1.2c5.6-6.3,5.1-16-1.2-21.6C707.2,110,605.7,71.3,500,71.3c-114.5,0-222.2,44.6-303.2,125.6c-81,81-125.6,188.6-125.6,303.2c0,98.1,34,193.9,95.6,270c3,3.7,7.4,5.7,11.9,5.7c3.4,0,6.8-1.1,9.6-3.4c6.6-5.3,7.6-15,2.2-21.5C133.4,680.1,101.9,591.1,101.9,500z"/><path d="M633.4,724h94.9c8.5,0,15.3-6.9,15.3-15.3V545c0-46-11.9-82.1-35.3-107.5c-21.9-23.7-52.8-36.3-89.3-36.3c-31.8,0-54.1,9.7-70.2,22.3v-0.3c0-8.5-6.9-15.3-15.3-15.3h-94.9c-4.2,0-8.2,1.7-11.1,4.7c-2.9,3-4.4,7.1-4.2,11.3c1.2,26.1,0,282.1,0,284.7c0,4.1,1.6,8,4.5,10.9c2.9,2.9,6.8,4.5,10.9,4.5h94.9c8.5,0,15.3-6.9,15.3-15.3V549.3c0-8.3,0.7-14.1,2-17.4c3.1-7.6,12.5-25.2,34.5-25.2c9,0,32.8,0,32.8,49.3v152.7C618.1,717.2,624.9,724,633.4,724z M585.3,476.1c-28.2,0-51.7,16.6-62.8,44.2c-3,7.2-4.3,16.1-4.3,29v144.1H454c0.2-49.5,0.8-201.9,0.2-254.8h63.9v25.1c0,6.8,4.5,12.8,11,14.7c6.5,1.9,13.5-0.7,17.2-6.4c12.9-19.8,31.6-40.1,72.7-40.1c59.7,0,94,41.2,94,113.1v148.4h-64.3V556c0-23.2-4.6-41.8-13.8-55.3C623.9,484.6,606.8,476.1,585.3,476.1z"/><path d="M407.6,334.6c-0.8-37.9-28.9-64.3-68.4-64.3c-40,0-69,27.2-69,64.6c0,37.5,28.5,64.6,67.7,64.6h0.6c40,0,69-27.2,69-64.6C407.6,334.8,407.6,334.7,407.6,334.6z M338.7,369H338c-22.2,0-37.1-13.7-37.1-34c0-20.3,15.4-34,38.3-34c22.8,0,37.2,13.1,37.7,34.2C376.9,355.4,361.5,369,338.7,369z"/><path d="M291.2,408c-8.5,0-15.3,6.9-15.3,15.3v285.4c0,8.5,6.9,15.3,15.3,15.3h94.9c8.5,0,15.3-6.9,15.3-15.3V423.3c0-8.5-6.9-15.3-15.3-15.3H291.2z M370.8,693.4h-64.3V438.6h64.3V693.4z"/></g><g></g><g></g><g></g><g></g><g></g><g></g><g></g><g></g><g></g><g></g><g></g><g></g><g></g><g></g><g></g></g>
</svg>